<mxfile host="Electron" modified="2024-02-28T15:15:16.906Z" agent="Mozilla/5.0 (X11; Linux x86_64) AppleWebKit/537.36 (KHTML, like Gecko) draw.io/23.1.5 Chrome/120.0.6099.109 Electron/28.1.0 Safari/537.36" etag="7yyzVnVCXAlLn711A7Ta" compressed="false" version="23.1.5" type="device">
  <diagram id="jLFWp5vPmYcwOU4BX7Fm" name="examples">
    <mxGraphModel dx="1624" dy="854" grid="1" gridSize="10" guides="1" tooltips="1" connect="1" arrows="1" fold="1" page="1" pageScale="1" pageWidth="1100" pageHeight="850" math="0" shadow="0">
      <root>
        <mxCell id="VsSiiwDWSvhPQYji7nPq-0" />
        <mxCell id="VsSiiwDWSvhPQYji7nPq-1" parent="VsSiiwDWSvhPQYji7nPq-0" />
        <mxCell id="qCe7d7aQyTPKSx8LoRMt-0" value="&lt;font color=&quot;#ff0000&quot;&gt;&lt;span style=&quot;font-size: 14px;&quot;&gt;&lt;b&gt;Water Tank Swap&lt;/b&gt;&lt;/span&gt;&lt;/font&gt;" style="text;html=1;strokeColor=none;fillColor=none;align=center;verticalAlign=middle;whiteSpace=wrap;rounded=0;" parent="VsSiiwDWSvhPQYji7nPq-1" vertex="1">
          <mxGeometry x="1173.995263157895" y="910" width="187.78947368421055" height="30" as="geometry" />
        </mxCell>
        <mxCell id="px1n_jiktqxlBkUM_ElN-76" value="" style="group" parent="VsSiiwDWSvhPQYji7nPq-1" vertex="1" connectable="0">
          <mxGeometry x="1159.995263157895" y="955" width="576.834736842105" height="555" as="geometry" />
        </mxCell>
        <mxCell id="qCe7d7aQyTPKSx8LoRMt-1" value="" style="group" parent="px1n_jiktqxlBkUM_ElN-76" vertex="1" connectable="0">
          <mxGeometry x="84.0047368421051" y="35" width="350" height="120" as="geometry" />
        </mxCell>
        <mxCell id="qCe7d7aQyTPKSx8LoRMt-2" value="Maestro" style="rounded=1;whiteSpace=wrap;html=1;" parent="qCe7d7aQyTPKSx8LoRMt-1" vertex="1">
          <mxGeometry x="118.2122595230987" y="80" width="95.12434415390526" height="40" as="geometry" />
        </mxCell>
        <mxCell id="qCe7d7aQyTPKSx8LoRMt-3" value="Watertankcontroller-c.fmu&lt;br&gt;(FMU&lt;sub&gt;1&lt;/sub&gt;)" style="rounded=1;whiteSpace=wrap;html=1;" parent="qCe7d7aQyTPKSx8LoRMt-1" vertex="1">
          <mxGeometry width="159.64467005076148" height="40" as="geometry" />
        </mxCell>
        <mxCell id="qCe7d7aQyTPKSx8LoRMt-4" value="" style="endArrow=none;html=1;rounded=0;" parent="qCe7d7aQyTPKSx8LoRMt-1" edge="1">
          <mxGeometry width="50" height="50" relative="1" as="geometry">
            <mxPoint x="81.58085569253085" y="60" as="sourcePoint" />
            <mxPoint x="267.45723670178734" y="60" as="targetPoint" />
          </mxGeometry>
        </mxCell>
        <mxCell id="qCe7d7aQyTPKSx8LoRMt-5" value="" style="endArrow=none;html=1;rounded=0;" parent="qCe7d7aQyTPKSx8LoRMt-1" edge="1">
          <mxGeometry width="50" height="50" relative="1" as="geometry">
            <mxPoint x="81.58085569253085" y="40" as="sourcePoint" />
            <mxPoint x="81.58085569253085" y="60" as="targetPoint" />
            <Array as="points">
              <mxPoint x="81.58085569253085" y="40" />
            </Array>
          </mxGeometry>
        </mxCell>
        <mxCell id="qCe7d7aQyTPKSx8LoRMt-6" value="" style="endArrow=none;html=1;rounded=0;exitX=0.375;exitY=1.057;exitDx=0;exitDy=0;exitPerimeter=0;" parent="qCe7d7aQyTPKSx8LoRMt-1" edge="1">
          <mxGeometry width="50" height="50" relative="1" as="geometry">
            <mxPoint x="165.47716802457035" y="60.27999999999997" as="sourcePoint" />
            <mxPoint x="165.77443160005134" y="80" as="targetPoint" />
          </mxGeometry>
        </mxCell>
        <mxCell id="qCe7d7aQyTPKSx8LoRMt-7" value="" style="endArrow=none;html=1;rounded=0;exitX=0.375;exitY=1.057;exitDx=0;exitDy=0;exitPerimeter=0;" parent="qCe7d7aQyTPKSx8LoRMt-1" edge="1">
          <mxGeometry width="50" height="50" relative="1" as="geometry">
            <mxPoint x="267.15997312630634" y="40.27999999999997" as="sourcePoint" />
            <mxPoint x="267.45723670178734" y="60" as="targetPoint" />
          </mxGeometry>
        </mxCell>
        <mxCell id="qCe7d7aQyTPKSx8LoRMt-8" value="Singlewatertank-20sim.fmu&lt;br&gt;(FMU&lt;sub&gt;2&lt;/sub&gt;)" style="rounded=1;whiteSpace=wrap;html=1;" parent="qCe7d7aQyTPKSx8LoRMt-1" vertex="1">
          <mxGeometry x="190.35532994923864" width="159.64467005076148" height="40" as="geometry" />
        </mxCell>
        <mxCell id="qCe7d7aQyTPKSx8LoRMt-9" value="" style="endArrow=classic;html=1;rounded=0;" parent="px1n_jiktqxlBkUM_ElN-76" edge="1">
          <mxGeometry width="50" height="50" relative="1" as="geometry">
            <mxPoint x="352.0047368421051" y="339" as="sourcePoint" />
            <mxPoint x="352.0047368421051" y="419" as="targetPoint" />
          </mxGeometry>
        </mxCell>
        <mxCell id="px1n_jiktqxlBkUM_ElN-4" value="&lt;font color=&quot;#ff0000&quot;&gt;&lt;span style=&quot;font-size: 14px;&quot;&gt;&lt;b&gt;Stage-1:&lt;/b&gt;&lt;/span&gt;&lt;/font&gt;" style="text;html=1;strokeColor=none;fillColor=none;align=center;verticalAlign=middle;whiteSpace=wrap;rounded=0;" parent="px1n_jiktqxlBkUM_ElN-76" vertex="1">
          <mxGeometry width="187.78947368421055" height="30" as="geometry" />
        </mxCell>
        <mxCell id="px1n_jiktqxlBkUM_ElN-5" value="&lt;font color=&quot;#ff0000&quot;&gt;&lt;span style=&quot;font-size: 14px;&quot;&gt;&lt;b&gt;Stage-2:&lt;/b&gt;&lt;/span&gt;&lt;/font&gt;" style="text;html=1;strokeColor=none;fillColor=none;align=center;verticalAlign=middle;whiteSpace=wrap;rounded=0;" parent="px1n_jiktqxlBkUM_ElN-76" vertex="1">
          <mxGeometry y="168" width="187.78947368421055" height="30" as="geometry" />
        </mxCell>
        <mxCell id="qCe7d7aQyTPKSx8LoRMt-24" value="Leakdetector.fmu&lt;br&gt;(FMU&lt;sub&gt;3&lt;/sub&gt;)" style="rounded=1;whiteSpace=wrap;html=1;" parent="px1n_jiktqxlBkUM_ElN-76" vertex="1">
          <mxGeometry x="424.0047368421051" y="208" width="152.83" height="40" as="geometry" />
        </mxCell>
        <mxCell id="qCe7d7aQyTPKSx8LoRMt-26" value="" style="endArrow=none;html=1;rounded=0;" parent="px1n_jiktqxlBkUM_ElN-76" edge="1">
          <mxGeometry width="50" height="50" relative="1" as="geometry">
            <mxPoint x="504.0047368421051" y="268" as="sourcePoint" />
            <mxPoint x="504.0047368421051" y="248" as="targetPoint" />
            <Array as="points">
              <mxPoint x="504.0047368421051" y="268" />
            </Array>
          </mxGeometry>
        </mxCell>
        <mxCell id="qCe7d7aQyTPKSx8LoRMt-11" value="&lt;span style=&quot;color: rgb(0, 0, 0); font-family: Helvetica; font-size: 12px; font-style: normal; font-variant-ligatures: normal; font-variant-caps: normal; font-weight: 400; letter-spacing: normal; orphans: 2; text-align: center; text-indent: 0px; text-transform: none; widows: 2; word-spacing: 0px; -webkit-text-stroke-width: 0px; background-color: rgb(251, 251, 251); text-decoration-thickness: initial; text-decoration-style: initial; text-decoration-color: initial; float: none; display: inline !important;&quot;&gt;Maestro&lt;/span&gt;" style="rounded=1;whiteSpace=wrap;html=1;" parent="px1n_jiktqxlBkUM_ElN-76" vertex="1">
          <mxGeometry x="304.21699636520384" y="288" width="95.12434415390526" height="40" as="geometry" />
        </mxCell>
        <mxCell id="qCe7d7aQyTPKSx8LoRMt-12" value="Watertankcontroller-c.fmu&lt;br&gt;(FMU&lt;sub&gt;1&lt;/sub&gt;)" style="rounded=1;whiteSpace=wrap;html=1;fillColor=#dae8fc;strokeColor=#6c8ebf;" parent="px1n_jiktqxlBkUM_ElN-76" vertex="1">
          <mxGeometry x="84.0047368421051" y="208" width="159.64467005076145" height="40" as="geometry" />
        </mxCell>
        <mxCell id="qCe7d7aQyTPKSx8LoRMt-13" value="" style="endArrow=none;html=1;rounded=0;" parent="px1n_jiktqxlBkUM_ElN-76" edge="1">
          <mxGeometry width="50" height="50" relative="1" as="geometry">
            <mxPoint x="165.5855925346359" y="268" as="sourcePoint" />
            <mxPoint x="504.0047368421051" y="268" as="targetPoint" />
          </mxGeometry>
        </mxCell>
        <mxCell id="qCe7d7aQyTPKSx8LoRMt-14" value="" style="endArrow=none;html=1;rounded=0;" parent="px1n_jiktqxlBkUM_ElN-76" edge="1">
          <mxGeometry width="50" height="50" relative="1" as="geometry">
            <mxPoint x="165.5855925346359" y="248" as="sourcePoint" />
            <mxPoint x="165.5855925346359" y="268" as="targetPoint" />
            <Array as="points">
              <mxPoint x="165.5855925346359" y="248" />
            </Array>
          </mxGeometry>
        </mxCell>
        <mxCell id="qCe7d7aQyTPKSx8LoRMt-15" value="" style="endArrow=none;html=1;rounded=0;exitX=0.375;exitY=1.057;exitDx=0;exitDy=0;exitPerimeter=0;" parent="px1n_jiktqxlBkUM_ElN-76" edge="1">
          <mxGeometry width="50" height="50" relative="1" as="geometry">
            <mxPoint x="351.48190486667545" y="268.28" as="sourcePoint" />
            <mxPoint x="351.77916844215633" y="288" as="targetPoint" />
          </mxGeometry>
        </mxCell>
        <mxCell id="qCe7d7aQyTPKSx8LoRMt-16" value="" style="endArrow=none;html=1;rounded=0;exitX=0.375;exitY=1.057;exitDx=0;exitDy=0;exitPerimeter=0;" parent="px1n_jiktqxlBkUM_ElN-76" edge="1">
          <mxGeometry width="50" height="50" relative="1" as="geometry">
            <mxPoint x="351.16470996841144" y="248.27999999999997" as="sourcePoint" />
            <mxPoint x="351.4619735438923" y="268" as="targetPoint" />
          </mxGeometry>
        </mxCell>
        <mxCell id="qCe7d7aQyTPKSx8LoRMt-17" value="Singlewatertank-20sim.fmu&lt;br&gt;(FMU&lt;sub&gt;2&lt;/sub&gt;)" style="rounded=1;whiteSpace=wrap;html=1;" parent="px1n_jiktqxlBkUM_ElN-76" vertex="1">
          <mxGeometry x="254.00006679134367" y="208" width="159.64467005076145" height="40" as="geometry" />
        </mxCell>
        <mxCell id="px1n_jiktqxlBkUM_ElN-71" value="&lt;b&gt;&lt;font style=&quot;font-size: 13px;&quot;&gt;Swap&lt;/font&gt;&lt;/b&gt;" style="text;html=1;strokeColor=none;fillColor=none;align=center;verticalAlign=middle;whiteSpace=wrap;rounded=0;" parent="px1n_jiktqxlBkUM_ElN-76" vertex="1">
          <mxGeometry x="352.6447368421052" y="359" width="60" height="30" as="geometry" />
        </mxCell>
        <mxCell id="px1n_jiktqxlBkUM_ElN-66" value="Leakdetector.fmu&lt;br&gt;(FMU&lt;sub&gt;3&lt;/sub&gt;)" style="rounded=1;whiteSpace=wrap;html=1;" parent="px1n_jiktqxlBkUM_ElN-76" vertex="1">
          <mxGeometry x="422.20473684210515" y="435" width="152.83" height="40" as="geometry" />
        </mxCell>
        <mxCell id="px1n_jiktqxlBkUM_ElN-67" value="Leakcontroller.fmu&lt;br&gt;(FMU&lt;sub&gt;4&lt;/sub&gt;)" style="rounded=1;whiteSpace=wrap;html=1;fillColor=#d5e8d4;strokeColor=#82b366;" parent="px1n_jiktqxlBkUM_ElN-76" vertex="1">
          <mxGeometry x="84.61473684210523" y="435" width="152.83" height="40" as="geometry" />
        </mxCell>
        <mxCell id="px1n_jiktqxlBkUM_ElN-68" value="" style="endArrow=none;html=1;rounded=0;" parent="px1n_jiktqxlBkUM_ElN-76" edge="1">
          <mxGeometry width="50" height="50" relative="1" as="geometry">
            <mxPoint x="502.20473684210515" y="495" as="sourcePoint" />
            <mxPoint x="502.20473684210515" y="475" as="targetPoint" />
            <Array as="points">
              <mxPoint x="502.20473684210515" y="495" />
            </Array>
          </mxGeometry>
        </mxCell>
        <mxCell id="px1n_jiktqxlBkUM_ElN-59" value="Maestro" style="rounded=1;whiteSpace=wrap;html=1;" parent="px1n_jiktqxlBkUM_ElN-76" vertex="1">
          <mxGeometry x="302.4169963652039" y="515" width="95.12434415390526" height="40" as="geometry" />
        </mxCell>
        <mxCell id="px1n_jiktqxlBkUM_ElN-61" value="" style="endArrow=none;html=1;rounded=0;" parent="px1n_jiktqxlBkUM_ElN-76" edge="1">
          <mxGeometry width="50" height="50" relative="1" as="geometry">
            <mxPoint x="163.78559253463595" y="495" as="sourcePoint" />
            <mxPoint x="501.20473684210515" y="495" as="targetPoint" />
          </mxGeometry>
        </mxCell>
        <mxCell id="px1n_jiktqxlBkUM_ElN-62" value="" style="endArrow=none;html=1;rounded=0;" parent="px1n_jiktqxlBkUM_ElN-76" edge="1">
          <mxGeometry width="50" height="50" relative="1" as="geometry">
            <mxPoint x="163.78559253463595" y="475" as="sourcePoint" />
            <mxPoint x="163.78559253463595" y="495" as="targetPoint" />
            <Array as="points">
              <mxPoint x="163.78559253463595" y="475" />
            </Array>
          </mxGeometry>
        </mxCell>
        <mxCell id="px1n_jiktqxlBkUM_ElN-63" value="" style="endArrow=none;html=1;rounded=0;exitX=0.375;exitY=1.057;exitDx=0;exitDy=0;exitPerimeter=0;" parent="px1n_jiktqxlBkUM_ElN-76" edge="1">
          <mxGeometry width="50" height="50" relative="1" as="geometry">
            <mxPoint x="349.6819048666755" y="495.28" as="sourcePoint" />
            <mxPoint x="349.9791684421564" y="515" as="targetPoint" />
          </mxGeometry>
        </mxCell>
        <mxCell id="px1n_jiktqxlBkUM_ElN-64" value="" style="endArrow=none;html=1;rounded=0;exitX=0.375;exitY=1.057;exitDx=0;exitDy=0;exitPerimeter=0;" parent="px1n_jiktqxlBkUM_ElN-76" edge="1">
          <mxGeometry width="50" height="50" relative="1" as="geometry">
            <mxPoint x="349.3647099684115" y="475.28" as="sourcePoint" />
            <mxPoint x="349.6619735438924" y="495" as="targetPoint" />
          </mxGeometry>
        </mxCell>
        <mxCell id="px1n_jiktqxlBkUM_ElN-65" value="Singlewatertank-20sim.fmu&lt;br&gt;(FMU&lt;sub&gt;2&lt;/sub&gt;)" style="rounded=1;whiteSpace=wrap;html=1;" parent="px1n_jiktqxlBkUM_ElN-76" vertex="1">
          <mxGeometry x="252.20006679134372" y="435" width="159.64467005076145" height="40" as="geometry" />
        </mxCell>
        <mxCell id="px1n_jiktqxlBkUM_ElN-74" value="" style="verticalLabelPosition=bottom;verticalAlign=top;html=1;shape=mxgraph.basic.flash;fillColor=#FF3333;" parent="px1n_jiktqxlBkUM_ElN-76" vertex="1">
          <mxGeometry x="232.0047368421051" y="15" width="20" height="40" as="geometry" />
        </mxCell>
      </root>
    </mxGraphModel>
  </diagram>
</mxfile>
